<?xml version="1.0" standalone="no"?>
<!DOCTYPE svg PUBLIC "-//W3C//DTD SVG 20010904//EN"
 "http://www.w3.org/TR/2001/REC-SVG-20010904/DTD/svg10.dtd">
<svg version="1.0" xmlns="http://www.w3.org/2000/svg"
 width="1600.000000pt" height="1600.000000pt" viewBox="0 0 1600.000000 1600.000000"
 preserveAspectRatio="xMidYMid meet">

<g transform="translate(0.000000,1600.000000) scale(0.100000,-0.100000)"
fill="#000000" stroke="none">
<path d="M8045 12114 c-1417 -38 -2373 -188 -3115 -489 -312 -126 -614 -331
-780 -528 -136 -161 -232 -340 -283 -527 -62 -227 -68 -516 -16 -756 48 -223
162 -455 270 -548 164 -140 490 -181 730 -90 86 32 173 85 227 137 51 49 68
78 82 142 14 64 0 111 -65 215 -122 196 -156 295 -162 475 -8 211 37 341 163
474 152 161 398 269 804 352 240 48 830 123 846 106 4 -3 -1 -77 -10 -164 -21
-201 -62 -599 -75 -723 -12 -111 -61 -546 -91 -809 -37 -322 -59 -493 -65
-500 -4 -3 -151 -9 -328 -12 -286 -5 -331 -8 -400 -27 -133 -37 -219 -93 -280
-185 -92 -138 -113 -367 -46 -498 41 -81 136 -154 261 -200 60 -22 79 -24 358
-27 162 -2 298 -6 302 -10 9 -9 -52 -498 -82 -672 -132 -749 -473 -1200 -1007
-1336 -302 -76 -649 -39 -938 100 -178 87 -322 200 -483 380 -129 145 -239
239 -331 283 -65 31 -84 36 -155 37 -70 1 -89 -3 -138 -27 -216 -106 -311
-464 -190 -721 85 -179 344 -414 637 -576 341 -189 700 -298 1095 -331 192
-17 595 -5 775 21 926 136 1506 597 1829 1453 122 323 190 606 271 1137 20
129 38 240 40 247 3 10 208 13 907 16 1007 3 939 -1 1098 74 55 26 94 55 146
107 111 112 158 234 158 411 0 134 -24 198 -103 276 -65 64 -130 91 -266 110
-80 11 -807 8 -1509 -8 l-299 -6 6 59 c4 32 16 138 27 234 26 222 44 383 75
690 14 135 27 261 30 280 3 19 12 105 20 190 45 483 66 700 71 738 l5 42 517
0 c486 0 698 -5 1207 -30 308 -15 844 -49 1048 -65 447 -37 628 -5 767 134 97
98 134 210 128 391 -3 98 -7 123 -30 171 -54 118 -148 183 -317 219 -244 52
-1146 126 -1851 150 -298 10 -1278 20 -1485 14z"/>
<path d="M11193 9050 c-211 -24 -381 -102 -488 -222 -35 -40 -94 -149 -242
-443 -481 -959 -565 -1096 -968 -1580 -130 -156 -287 -335 -454 -515 -210
-228 -247 -299 -239 -454 10 -183 127 -294 318 -304 153 -8 252 41 450 219
444 400 719 722 1002 1174 48 77 92 147 98 155 8 12 27 -3 101 -80 113 -117
275 -317 348 -430 108 -169 175 -341 188 -491 l6 -66 -104 13 c-250 31 -326
36 -476 31 -246 -7 -371 -53 -499 -181 -230 -231 -194 -549 89 -774 116 -93
274 -158 467 -193 50 -9 148 -14 290 -13 238 1 339 16 510 76 512 181 871 631
920 1151 24 261 -36 482 -193 717 -84 125 -351 470 -387 500 -18 15 -205 236
-251 297 -217 287 -220 444 -17 839 90 176 145 312 153 381 12 93 -42 149
-168 178 -84 19 -345 28 -454 15z"/>
<path d="M6208 4222 l-28 -3 0 -152 -1 -152 -18 35 c-11 19 -51 87 -89 150
l-70 115 -51 3 -51 3 0 -230 0 -231 50 0 50 0 0 153 0 152 29 -45 c15 -25 57
-93 92 -152 l63 -108 48 0 48 0 0 229 0 229 -22 3 c-13 2 -35 3 -50 1z"/>
<path d="M6650 4219 c-36 -14 -69 -48 -93 -94 -31 -59 -31 -213 0 -272 28 -51
63 -80 116 -94 100 -27 211 32 233 124 6 27 6 27 -45 27 -44 0 -51 -3 -51 -20
0 -60 -104 -83 -151 -34 -21 23 -24 36 -27 119 -5 117 11 159 67 176 50 15 88
-1 107 -46 13 -33 17 -35 60 -35 45 0 46 0 39 28 -20 80 -91 133 -181 131 -27
0 -60 -5 -74 -10z"/>
<path d="M8176 4220 c-71 -22 -110 -98 -82 -163 17 -43 51 -67 144 -101 40
-16 77 -36 82 -46 26 -48 -2 -80 -69 -80 -49 0 -70 14 -84 53 -5 13 -18 17
-52 17 -53 0 -59 -17 -22 -70 34 -50 90 -75 167 -74 108 1 160 43 160 128 0
65 -39 106 -133 142 -40 15 -80 34 -89 42 -40 34 -6 92 53 92 30 0 79 -34 79
-56 0 -10 13 -14 45 -14 41 0 45 2 45 25 0 34 -54 93 -98 105 -44 12 -106 12
-146 0z"/>
<path d="M8650 4190 l0 -40 70 0 70 0 0 -193 0 -192 45 3 45 4 0 189 0 189 70
0 70 0 0 40 0 40 -185 0 -185 0 0 -40z"/>
<path d="M4800 3990 l0 -230 45 0 45 0 0 95 0 95 96 0 95 0 -3 38 -3 37 -93 3
-93 3 3 57 3 57 103 3 102 3 0 34 0 35 -150 0 -150 0 0 -230z"/>
<path d="M5402 4193 c-35 -88 -152 -414 -152 -423 0 -5 21 -10 48 -10 l47 0
15 48 15 47 81 3 82 3 18 -51 18 -50 49 0 c35 0 48 4 45 13 -3 6 -41 110 -84
229 l-79 218 -46 0 c-42 0 -48 -3 -57 -27z m87 -172 c30 -91 30 -91 -35 -91
-46 0 -55 3 -50 15 3 9 15 47 27 86 12 39 25 67 29 62 4 -4 17 -37 29 -72z"/>
<path d="M7120 4216 c0 -3 15 -34 34 -68 119 -223 116 -214 116 -304 l0 -84
45 0 45 0 0 81 0 81 75 143 c41 78 75 145 75 149 0 3 -22 6 -49 6 l-48 0 -47
-101 c-26 -56 -50 -99 -53 -95 -3 3 -25 47 -48 98 l-43 93 -51 3 c-28 2 -51 1
-51 -2z"/>
<path d="M9232 4213 c7 -16 89 -174 118 -228 27 -49 30 -65 30 -140 l0 -85 45
0 45 0 0 81 0 82 75 142 c41 79 75 146 75 149 0 3 -22 6 -48 6 l-49 0 -47
-101 c-26 -55 -50 -98 -53 -95 -4 3 -25 47 -48 98 l-42 93 -52 3 c-29 2 -51
-1 -49 -5z"/>
<path d="M9850 3990 l0 -230 150 0 150 0 0 35 0 34 -97 3 -98 3 -3 193 -2 192
-50 0 -50 0 0 -230z"/>
<path d="M10390 3990 l0 -230 155 0 155 0 0 35 0 34 -107 3 -108 3 -3 63 -3
62 96 0 95 0 0 35 0 35 -95 0 -96 0 3 58 3 57 108 3 107 3 0 34 0 35 -155 0
-155 0 0 -230z"/>
</g>
</svg>
