<?xml version="1.0" standalone="no"?>
<!DOCTYPE svg PUBLIC "-//W3C//DTD SVG 20010904//EN"
 "http://www.w3.org/TR/2001/REC-SVG-20010904/DTD/svg10.dtd">
<svg version="1.0" xmlns="http://www.w3.org/2000/svg"
 width="600.000000pt" height="600.000000pt" viewBox="0 0 600.000000 600.000000"
 preserveAspectRatio="xMidYMid meet">

<g transform="translate(0.000000,600.000000) scale(0.100000,-0.100000)"
fill="#000000" stroke="none">
<path d="M2805 4720 c-844 -62 -1218 -300 -1192 -760 9 -167 66 -292 151 -331
79 -36 198 -16 256 43 47 47 48 69 4 161 -36 75 -39 89 -39 167 0 125 39 188
150 243 78 39 243 79 381 92 l70 7 -8 -88 c-25 -277 -69 -721 -73 -731 -3 -9
-35 -13 -115 -13 -122 0 -159 -10 -201 -56 -67 -73 -65 -204 3 -253 42 -30 83
-39 176 -40 81 -1 92 -3 92 -19 0 -58 -34 -281 -55 -361 -52 -194 -158 -329
-291 -371 -158 -48 -326 -1 -442 126 -26 28 -68 73 -94 102 -61 66 -111 84
-159 56 -75 -44 -104 -186 -58 -282 47 -96 194 -213 346 -273 111 -45 224 -62
358 -56 489 25 728 300 815 942 6 44 13 92 16 108 l6 27 291 0 c170 0 308 4
329 10 107 30 174 169 133 276 -14 37 -25 50 -59 65 -37 17 -69 19 -347 19
l-305 0 7 73 c5 39 20 200 34 357 14 157 28 312 31 344 l6 59 307 -6 c168 -4
383 -14 476 -22 244 -21 293 -20 345 8 58 30 90 90 90 165 0 71 -23 118 -71
142 -40 21 -185 42 -419 60 -181 14 -795 21 -945 10z"/>
<path d="M3985 3557 c-27 -14 -62 -37 -76 -53 -15 -16 -62 -108 -104 -204
-144 -326 -209 -438 -385 -660 -138 -174 -150 -194 -150 -258 0 -48 4 -58 34
-88 38 -38 74 -44 129 -20 35 15 170 151 261 263 48 61 171 251 190 296 7 16
64 -47 127 -141 47 -71 89 -178 89 -229 0 -21 -4 -24 -24 -19 -13 3 -61 9
-108 12 -109 9 -171 -10 -222 -66 -76 -85 -70 -188 18 -275 109 -110 307 -126
478 -39 148 75 258 266 258 446 0 124 -36 200 -196 418 -124 169 -138 198
-131 274 3 39 18 90 40 141 20 45 42 102 49 128 11 44 11 49 -10 69 -19 19
-35 23 -119 26 -87 3 -104 0 -148 -21z"/>
<path d="M1320 1425 l0 -125 25 0 c23 0 25 3 25 50 l0 50 50 0 c43 0 50 3 50
20 0 17 -7 20 -50 20 l-50 0 0 35 0 35 55 0 c48 0 55 2 55 20 0 18 -7 20 -80
20 l-80 0 0 -125z"/>
<path d="M1642 1523 c-6 -16 -26 -72 -46 -125 l-36 -98 25 0 c18 0 28 8 35 25
8 22 16 25 55 25 39 0 47 -3 55 -25 7 -18 17 -25 36 -25 21 0 25 4 19 18 -4 9
-25 65 -47 125 -35 93 -43 107 -63 107 -16 0 -26 -8 -33 -27z m51 -88 l16 -45
-34 0 -34 0 16 45 c8 25 16 45 18 45 2 0 10 -20 18 -45z"/>
<path d="M1920 1425 c0 -118 1 -125 20 -125 18 0 20 7 20 81 0 46 4 78 9 75 5
-4 29 -40 53 -81 37 -64 47 -75 71 -75 l27 0 0 125 0 125 -25 0 c-24 0 -24 -2
-27 -82 l-3 -83 -50 83 c-39 64 -55 82 -72 82 -23 0 -23 -2 -23 -125z"/>
<path d="M2310 1537 c-58 -29 -76 -137 -33 -196 23 -30 70 -46 108 -37 30 8
65 40 65 61 0 23 -43 18 -58 -6 -18 -28 -62 -22 -80 11 -15 29 -10 103 8 125
18 21 58 19 72 -5 14 -22 58 -28 58 -7 -1 30 -51 67 -92 67 -13 0 -34 -6 -48
-13z"/>
<path d="M2570 1545 c0 -3 18 -41 40 -85 27 -53 40 -93 40 -120 0 -36 2 -40
25 -40 23 0 25 3 25 50 0 38 9 68 35 120 19 38 35 72 35 75 0 3 -11 5 -24 5
-19 0 -28 -11 -48 -57 l-25 -58 -29 58 c-22 45 -33 57 -51 57 -13 0 -23 -2
-23 -5z"/>
<path d="M3118 1535 c-60 -33 -39 -94 42 -124 70 -26 66 -85 -5 -67 -14 4 -25
13 -25 21 0 9 -10 15 -25 15 -37 0 -33 -35 8 -60 38 -24 78 -25 117 -5 61 31
29 113 -50 130 -59 13 -62 65 -3 65 13 0 26 -7 29 -15 8 -19 54 -20 54 -2 0
42 -93 70 -142 42z"/>
<path d="M3390 1530 c0 -16 7 -20 35 -20 l35 0 0 -105 0 -105 25 0 25 0 0 105
0 105 40 0 c33 0 40 3 40 20 0 19 -7 20 -100 20 -93 0 -100 -1 -100 -20z"/>
<path d="M3753 1530 c-28 -17 -53 -66 -53 -105 0 -5 5 -27 11 -48 17 -64 87
-94 148 -63 34 18 51 54 51 111 0 57 -17 93 -51 111 -38 19 -68 18 -106 -6z
m89 -37 c26 -23 25 -113 -2 -138 -46 -42 -97 11 -87 90 8 59 51 83 89 48z"/>
<path d="M4050 1426 l0 -126 25 0 c23 0 25 4 25 45 0 38 3 45 20 45 14 0 27
-14 42 -45 18 -38 27 -45 50 -45 l28 0 -25 50 -25 50 20 20 c25 25 26 71 1
101 -16 19 -30 24 -90 27 l-71 4 0 -126z m124 62 c16 -26 -4 -52 -43 -56 -30
-3 -31 -2 -31 38 0 40 1 41 31 38 18 -2 37 -11 43 -20z"/>
<path d="M4370 1425 l0 -125 85 0 c78 0 85 2 85 20 0 18 -7 20 -60 20 l-60 0
0 35 0 35 50 0 c43 0 50 3 50 20 0 17 -7 20 -50 20 -49 0 -50 1 -50 30 l0 30
60 0 c53 0 60 2 60 20 0 18 -7 20 -85 20 l-85 0 0 -125z"/>
</g>
</svg>
